<svg width="19" height="21" viewBox="0 0 19 21" fill="none" xmlns="http://www.w3.org/2000/svg">
<path d="M2.65835 8.16731H7.66502C8.10749 8.16731 8.53184 8.34308 8.84471 8.65595C9.15758 8.96883 9.33335 9.39317 9.33335 9.83564V18.1798C9.33335 18.6223 9.15758 19.0466 8.84471 19.3595C8.53184 19.6724 8.10749 19.8481 7.66502 19.8481H2.65835C1.73669 19.8481 0.990021 19.1015 0.990021 18.1798V9.83564C0.990021 9.39317 1.16579 8.96883 1.47866 8.65595C1.79154 8.34308 2.21588 8.16731 2.65835 8.16731ZM2.65835 8.16731H7.66669V6.31064C7.66658 6.22565 7.64972 6.14152 7.61706 6.06305C7.58441 5.98458 7.53661 5.91331 7.4764 5.85333C7.41618 5.79335 7.34474 5.74582 7.26614 5.71348C7.18755 5.68113 7.10335 5.66459 7.01835 5.66481H3.30502C3.13366 5.66481 2.9693 5.73283 2.84805 5.85392C2.7268 5.97501 2.65857 6.13928 2.65835 6.31064V8.16731ZM11 2.76648L10.6275 2.02064C10.4893 1.74356 10.2765 1.51048 10.0132 1.34753C9.74987 1.18459 9.44635 1.09823 9.13669 1.09814H1.82419M5.16169 12.339V15.6765M3.49335 14.0081H6.83002M5.16169 1.09814V5.66481M17.6767 12.7565C17.6767 13.5309 17.369 14.2736 16.8214 14.8212C16.2738 15.3688 15.5311 15.6765 14.7567 15.6765C13.9823 15.6765 13.2395 15.3688 12.6919 14.8212C12.1443 14.2736 11.8367 13.5309 11.8367 12.7565C11.8367 10.5665 14.7534 6.91564 14.7534 6.91564C14.7534 6.91564 17.6767 10.5665 17.6767 12.7565Z" stroke="#171E1D" stroke-width="1.5" stroke-linecap="round" stroke-linejoin="round"/>
</svg>
