<svg width="22" height="39" viewBox="0 0 22 39" fill="none" xmlns="http://www.w3.org/2000/svg">
<path d="M8.39059 38.1398C3.42998 37.4047 -0.0135534 32.7864 0.729664 27.7709C0.931788 26.407 1.0684 25.6161 1.25151 24.2494C1.3499 23.4886 2.64466 19.9098 3.76722 18.786C5.56804 16.9833 6.32265 16.7092 8.25999 15.9897C10.593 15.1233 13.7313 15.5838 15.6936 14.2666C17.0399 13.3664 17.9497 11.9267 18.1883 10.3164C18.2111 10.1629 18.2272 10.0189 18.2365 9.87656C18.2441 9.78142 18.2479 9.68571 18.2503 9.58982C18.253 9.49263 18.2531 9.39507 18.2505 9.29842C18.2436 9.07191 18.2245 8.84887 18.1936 8.63463C17.9185 6.73325 16.7272 5.10884 15.0081 4.29104C14.8156 4.19922 14.6103 4.11473 14.3966 4.0435C14.3059 4.01292 14.2136 3.98473 14.1208 3.95912C14.0294 3.9337 13.9378 3.90958 13.8443 3.88913C13.7069 3.8569 13.566 3.83075 13.4154 3.80844C13.2648 3.78612 13.1211 3.7701 12.9803 3.7611C12.8862 3.75375 12.7915 3.75026 12.6966 3.74807C12.6004 3.74569 12.5039 3.74589 12.4082 3.74886C12.3361 3.75136 12.2638 3.75515 12.1941 3.75932C12.1244 3.76349 12.0542 3.77024 11.9865 3.77866C11.9189 3.78579 11.8526 3.79311 11.787 3.80449C11.6511 3.82391 11.5265 3.84632 11.4064 3.87336C9.51609 4.28157 7.92372 5.67149 7.25366 7.50005L7.25271 7.50651L7.25047 7.51277C7.23395 7.55384 7.2159 7.60522 7.19728 7.66049C7.16673 7.75222 7.13855 7.84562 7.11291 7.9394C7.08747 8.03189 7.0633 8.12457 7.04277 8.21911C7.03525 8.25228 7.02791 8.28416 7.02166 8.31752C6.66795 8.94421 5.95731 9.29515 5.25157 9.19057C4.40034 9.06443 3.77687 8.34305 3.76722 7.47527C3.83448 7.16217 3.92019 6.84784 4.02006 6.54353L4.02823 6.52364C5.43557 2.28968 9.62831 -0.3131 13.9929 0.333676C16.3871 0.688458 18.5027 1.97248 19.9512 3.94752C21.4009 5.92274 22.0009 8.34301 21.6422 10.7636L18.7358 30.3763C17.9926 35.3918 13.3512 38.8748 8.39059 38.1398Z" fill="#00C29F"/>
</svg>
